<svg width="226" height="46" viewBox="0 0 226 46" fill="none" xmlns="http://www.w3.org/2000/svg">
<g clip-path="url(#clip0_853_1279)">
<path d="M29.1501 25.7654C28.6299 29.1156 26.0011 31.1983 22.2844 31.1983C17.5929 31.1983 14.562 27.6347 14.562 22.1211C14.562 16.9102 17.5469 13.6794 22.3533 13.6794C25.7517 13.6794 28.2984 15.6226 28.84 18.6298L28.9056 18.9828H35.2905L35.2282 18.4953C34.3946 11.9043 29.2765 7.47668 22.496 7.47668H22.2893C18.3904 7.47668 14.8131 8.96096 12.2155 11.6555C9.5719 14.3988 8.14427 18.181 8.20498 22.2926C8.15247 26.5353 9.61128 30.415 12.3074 33.2188C14.9099 35.9184 18.4806 37.4044 22.3664 37.4044H22.5666C29.1846 37.4044 34.5209 32.6758 35.5432 25.905L35.6187 25.4007H29.2092L29.1501 25.7654Z" fill="white"/>
<path d="M68.8918 31.4657C68.854 30.8387 68.667 29.3057 68.5078 28.1727C68.1649 25.969 67.3723 24.6427 65.9184 23.9082C68.1862 22.5432 69.3775 20.1865 69.3775 17.0331C69.3775 11.2556 65.8265 7.9408 59.6368 7.9408H46.5847V36.7321H52.8121V26.127H58.2716C61.5846 26.2951 61.5945 26.359 62.1524 29.8873L62.3592 31.5111C62.6266 33.7501 62.8055 35.2294 63.3601 36.48L63.4717 36.7321H69.8583V35.858L69.8255 35.7757C69.1822 34.2544 69.0592 33.382 68.8918 31.4657ZM52.8105 14.1418H58.5653C60.5771 14.1418 62.9762 14.6865 62.9762 17.2818C62.9762 19.3881 61.5502 20.4555 58.7376 20.4555H52.8121L52.8105 14.1418Z" fill="white"/>
<path d="M78.2963 25.1722H92.5841V19.2536H78.2963V14.1418H93.7918V7.9408H72.0706V36.7321H93.9641V30.5311H78.2963V25.1722Z" fill="white"/>
<path d="M108.011 7.9408L95.7349 36.7321H102.463L104.877 30.8992H117.709L120.118 36.7321H126.846L114.566 7.9408H108.011ZM107.445 24.6982L111.319 15.5454L115.136 24.6982H107.445Z" fill="white"/>
<path d="M148.135 7.9408H121.342V14.1788H131.626V36.7321H137.851V14.1788H148.135V7.9408Z" fill="white"/>
<path d="M162.144 7.37427H161.732C157.693 7.37427 154.019 8.87536 151.394 11.6019C148.768 14.3284 147.357 18.0886 147.401 22.1885C147.351 26.4278 148.801 30.294 151.486 33.0794C154.111 35.8008 157.749 37.3002 161.733 37.3002H162.14C166.028 37.3002 169.594 35.8244 172.175 33.1449C174.868 30.3512 176.32 26.4615 176.277 22.2003C176.328 18.0534 174.907 14.2662 172.277 11.5363C169.689 8.84678 166.092 7.37427 162.152 7.37427H162.144ZM161.939 31.0975C157.127 31.0975 153.768 27.3641 153.768 22.0204C153.768 17.0515 157.127 13.5803 161.939 13.5803C166.628 13.5803 169.904 17.0515 169.904 22.0204C169.904 27.3658 166.622 31.0975 161.939 31.0975Z" fill="white"/>
<path d="M200.581 31.4657C200.545 30.8488 200.362 29.3444 200.198 28.1727C199.855 25.969 199.062 24.6427 197.608 23.9082C199.876 22.5432 201.066 20.1865 201.066 17.0331C201.066 11.2556 197.516 7.9408 191.325 7.9408H178.274V36.7321H184.5V26.127H189.96C193.273 26.2951 193.284 26.359 193.842 29.8873L194.049 31.5111C194.316 33.7501 194.495 35.2294 195.048 36.48L195.161 36.7321H201.548V35.858L201.515 35.7757C200.872 34.2527 200.749 33.3803 200.581 31.4657ZM184.5 14.1418H190.257C192.268 14.1418 194.666 14.6865 194.666 17.2818C194.666 19.3881 193.242 20.4555 190.431 20.4555H184.5V14.1418Z" fill="white"/>
<path d="M224.436 22.7837C223.335 21.5768 222.139 20.7985 220.757 20.4018C219.444 20.0236 217.705 19.6958 215.412 19.3932C213.863 19.21 212.682 18.9865 211.966 18.8352C209.669 18.2939 209.393 17.1542 209.393 16.3574C209.393 13.8512 211.924 13.3317 214.045 13.3317C216.957 13.3317 218.681 14.6496 218.906 17.0416L218.942 17.4316H225.681V16.9996C225.681 11.244 221.047 7.37781 214.149 7.37781C207.372 7.37781 202.99 10.933 202.99 16.4348C202.99 18.6587 203.529 20.3766 204.579 21.5281C205.548 22.6914 206.832 23.5357 208.268 23.9553C210.008 24.4308 211.78 24.778 213.57 24.9942C215.237 25.2262 216.389 25.4464 217.052 25.5859C219.296 26.1255 219.557 27.2399 219.557 28.03C219.557 30.106 217.649 31.3465 214.456 31.3465C211.134 31.3465 209.175 29.6924 209.08 26.8079L209.065 26.3927H202.198V26.8247C202.198 33.1838 206.957 37.2954 214.318 37.2954C221.408 37.2954 225.99 33.6292 225.99 27.9543C225.99 25.7355 225.466 23.9991 224.426 22.7804" fill="white"/>
<path d="M21.9034 44.8814C9.82602 44.8814 0 34.8108 0 22.4373C0 10.0639 9.82602 0 21.9034 0C33.9808 0 43.8134 10.0655 43.8134 22.4373C43.8134 34.8091 33.9825 44.8814 21.9034 44.8814ZM21.9034 4.32341C18.4049 4.32341 14.9849 5.38619 12.0761 7.37736C9.16723 9.36852 6.90014 12.1986 5.56154 15.5097C4.22293 18.8208 3.87294 22.4642 4.55583 25.9791C5.23872 29.494 6.92381 32.7224 9.39799 35.2562C11.8722 37.79 15.0243 39.5153 18.4557 40.2138C21.8871 40.9124 25.4437 40.5528 28.6757 39.1807C31.9076 37.8085 34.6697 35.4854 36.6127 32.5051C38.5557 29.5248 39.5922 26.0212 39.5912 22.4373C39.586 17.6337 37.7208 13.0283 34.4047 9.63178C31.0887 6.23524 26.5928 4.32494 21.9034 4.32005" fill="white"/>
</g>
<defs>
<clipPath id="clip0_853_1279">
<rect width="226" height="46" fill="white"/>
</clipPath>
</defs>
</svg>
